<svg version="1.0" xmlns="http://www.w3.org/2000/svg" viewBox="0 0 60.3448275862069 60.3448275862069">
  <g xmlns="http://www.w3.org/2000/svg" transform="matrix(-6.0344827586206895, -6.0344827586206895) scale(3.0172413793103448)">
    <path d="M18,13v-2h-2.1c-0.1-0.4-0.2-0.7-0.4-1L17,8.5l-1.4-1.4L14,8.6c-0.3-0.2-0.7-0.3-1-0.4V6h-2v2.1c-0.4,0.1-0.7,0.2-1,0.4L8.5,7.1L7.1,8.5L8.6,10c-0.2,0.3-0.3,0.7-0.4,1H6v2h2.1c0.1,0.4,0.2,0.7,0.4,1l-1.5,1.5L8.5,17l1.5-1.5c0.3,0.2,0.7,0.3,1,0.4V18h2v-2.1c0.4-0.1,0.7-0.2,1-0.4l1.5,1.5l1.4-1.4l-1.5-1.5c0.2-0.3,0.3-0.7,0.4-1H18z M12,14c-1.1,0-2-0.9-2-2c0-1.1,0.9-2,2-2s2,0.9,2,2C14,13.1,13.1,14,12,14z"/>
    <path d="M18.3,4.3C16.6,2.9,14.4,2,12,2C9.6,2,7.4,2.9,5.7,4.3l1.4,1.4C8.5,4.7,10.2,4,12,4c1.8,0,3.5,0.6,4.9,1.7L18.3,4.3z"/>
    <path d="M4,12c0-1.8,0.6-3.5,1.7-4.9L4.3,5.7C2.9,7.4,2,9.6,2,12c0,5.2,4,9.4,9,9.9v-2C7.1,19.5,4,16.1,4,12z"/>
    <path d="M13,20v2c2.5-0.3,4.7-1.4,6.4-3.2l-1.4-1.4C16.7,18.8,14.9,19.7,13,20z"/>
    <path d="M19.7,5.7l-1.4,1.4C19.4,8.5,20,10.2,20,12c0,1.3-0.3,2.6-0.9,3.7l1.5,1.5c0.9-1.5,1.4-3.3,1.4-5.2C22,9.6,21.1,7.4,19.7,5.7z"/>
  </g>
</svg>